PathFileType	4	(X/Y/Z)	Patient4_TMGait_0pt3_03_right_16.trc.trc
DataRate	CameraRate	NumFrames	NumMarkers	Units	OrigDataRate	OrigDataStartFrame	OrigNumFrames
53.030303030303	53.030303030303	5	33	mm	53.030303030303	106	       141
Frame#	Time	Sacral			L.Shoulder			Chest			R.Shoulder			Neck			R.ASIS			L.ASIS			R.Thigh.Superior			R.Thigh.Lateral			R.Thigh.Inferior			R.Patella			L.Thigh.Superior			L.Thigh.Lateral			L.Thigh.Inferior			L.Patella			L.Shank.Superior			L.Shank.Lateral			L.Shank.Inferior			R.Shank.Superior			R.Shank.Lateral			R.Shank.Inferior			R.Heel			R.Midfoot.Superior			R.Midfoot.Lateral			R.Toe			L.Heel			L.Midfoot.Lateral			L.Midfoot.Superior			L.Toe			L.Elbow			L.Wrist			R.Elbow			R.Wrist			
		X1	Y1	Z1	X2	Y2	Z2	X3	Y3	Z3	X4	Y4	Z4	X5	Y5	Z5	X6	Y6	Z6	X7	Y7	Z7	X8	Y8	Z8	X9	Y9	Z9	X10	Y10	Z10	X11	Y11	Z11	X12	Y12	Z12	X13	Y13	Z13	X14	Y14	Z14	X15	Y15	Z15	X16	Y16	Z16	X17	Y17	Z17	X18	Y18	Z18	X19	Y19	Z19	X20	Y20	Z20	X21	Y21	Z21	X22	Y22	Z22	X23	Y23	Z23	X24	Y24	Z24	X25	Y25	Z25	X26	Y26	Z26	X27	Y27	Z27	X28	Y28	Z28	X29	Y29	Z29	X30	Y30	Z30	X31	Y31	Z31	X32	Y32	Z32	X33	Y33	Z33	

106	32.250000000000	497.834893612044	995.353308593669	322.849213953860	710.184521832818	1414.847114448922	140.578450505090	797.886903464700	1341.772126455446	308.411363933328	714.071557676236	1424.381440472587	477.755445972403	693.872024250459	1481.024840303554	296.833058220946	720.453048987510	935.075451309600	453.073785680219	722.142514155868	946.284051951614	179.215604454023	796.495689907527	756.497387129730	432.973019159847	746.658225083561	639.932759427823	509.977811619742	836.560302117288	592.937793082550	434.929540120194	846.950523339739	480.269128855557	464.431385187746	780.052735280269	742.187230981767	222.549395777592	705.813464087143	614.682136913684	166.612925107173	791.639763339988	546.136595144052	239.945203245121	795.222671700350	471.263717523616	250.665385004236	753.444047839408	397.953169000887	243.656075903047	650.012205466434	297.292669734461	189.713232327976	675.614459301959	181.885183126406	264.536827226773	765.400905469130	410.446050041609	473.493229058822	638.198312159691	381.775050748625	530.015373174638	620.467860345827	269.588288327646	488.059637204336	416.202898022928	219.894607532633	453.783012618787	579.642957026539	150.779362975594	507.996147063469	467.228215309099	158.397808596892	531.983762526078	634.582711367119	34.407320214737	539.669044017110	526.739262203331	38.744184710674	303.566805124109	600.801884865888	34.833184795346	223.134155308494	685.470077103510	93.949483686208	251.697899271625	813.125199008550	39.558425346553	221.095367249498	721.845878928395	1070.568527413208	3.443632973529	837.322168772548	836.120156399493	-2.534344380372	645.253990134183	1079.503636135537	593.379259867232	689.742245195800	822.403307911658	601.500774558118	
107	32.268857142857	496.296325787482	994.079800775085	320.721683925849	712.808197016914	1413.677038132918	141.274803494243	797.777353347991	1340.179052170352	310.294543665802	711.355943432145	1422.393721263499	478.541342253573	694.502929931426	1479.673383777699	297.488155603857	718.044274524527	934.461417365092	453.069905822471	722.447663434213	944.983855252412	179.114019111450	797.796994738924	759.278348058582	432.819955443366	751.074296222524	642.042844832117	510.600419132216	842.168173768107	596.998681226341	435.700718275979	855.220542489052	484.447111863926	465.620902900918	779.816672799054	740.696128323507	222.831176795001	705.635161091568	613.285605870852	166.921237288027	791.056964680664	544.690479039026	240.896861620595	794.423636089316	469.589292383277	251.799944719602	751.791006136207	396.398301397286	244.505034127678	647.486011485259	296.852410151873	190.083251925832	671.321578422481	181.147417122927	264.856411790676	774.611596109001	413.040838064440	474.729213636001	647.202360357354	382.628104819493	530.202473847648	631.717250511417	269.968149549082	488.971518874553	428.495209665284	216.074280241512	453.413702450491	593.063042008615	151.481618217406	509.433529449847	480.270984738266	156.431132076264	532.485606782258	650.238257871518	35.867780754098	542.374880281074	521.074533339020	38.870913693329	303.440810478742	595.185612222604	34.851214620293	223.073325862329	679.941057447653	93.827731022880	251.758366518792	807.525513479312	39.298894252254	221.050859047610	728.124123547461	1069.723301449657	3.665167279174	850.565962171649	838.626622319549	-0.304232898164	629.190461492798	1080.060566880757	592.043206341184	661.345897017283	821.345388994119	602.272534248028	
108	32.287714285714	494.926321712551	993.415958800208	318.824934815814	715.590185480477	1412.891349208096	142.290645440808	797.845780133077	1339.102312583940	312.466948826467	708.807518406715	1421.059623610584	479.477345144367	695.308032827291	1478.757594900029	298.368621301830	715.573223090170	934.188455844530	453.443542105755	722.976029058249	944.085911402174	179.424047947281	798.352339368936	762.056044359604	433.242556620925	754.174920792520	644.327104290135	511.642701671603	846.351672188225	601.015961996063	437.020756528651	861.995998860004	489.027618596294	467.291868024708	779.192479771182	739.311044433645	223.390965079967	704.735666808571	612.250823787097	167.336055728754	789.545309812664	543.392298099387	241.908354406399	792.574130638938	468.190947775402	252.976598360638	749.279982560796	395.178042704539	245.344782960510	644.336637485433	296.537250112454	190.426728081445	666.723884668164	180.581243745227	265.136033446803	783.136271578466	415.732287473295	476.506453653852	656.307550367869	382.159577520414	531.302699942053	644.284696314750	269.044742950769	490.705817081961	443.068789417184	208.309803233474	454.414598640175	609.326062413537	150.743670415324	511.732535718349	496.487342887896	151.501207025256	534.240507341668	670.285003854156	37.418858301744	545.815757879633	515.388977950044	38.980251090515	303.309037887905	589.550408238600	34.858048709652	223.001916108401	674.375095968665	93.724177055979	251.784938385542	801.905124171071	39.091789518390	221.002962581783	734.035306336634	1069.284525826676	4.293771777964	863.905807669388	842.035378751842	2.568402981184	613.954260282297	1081.555728065973	590.442770721514	634.579495086596	821.848208299658	602.382359401653	
109	32.306571428571	493.757320422011	993.431928577758	317.189296711079	718.519678789592	1412.551706150064	143.605255882427	798.084691604933	1338.612534069015	314.910298308182	706.458540625728	1420.476418407946	480.551376833968	696.273928663429	1478.351044764022	299.451357444158	713.065484425948	934.327712225384	454.235809924104	723.710878961605	943.652428246768	180.174260600849	798.124262896369	764.782802337986	434.222327908671	755.887330029481	646.711379688425	513.072168638356	848.978477251087	604.844814786762	438.806650839183	867.112106816187	493.901358046656	469.359202927978	778.123578464731	738.082922194267	224.267857795565	703.056207680860	611.641291524489	167.859634036287	787.007319061002	542.288121665858	242.985485688776	789.567360401233	467.122877872412	254.180499264494	745.817497976557	394.348742974305	246.161522095219	640.494159696473	296.374493085610	190.738847242493	661.789381532413	180.215071019494	265.377284646630	790.864170160933	418.483996828500	478.759500033147	665.574817387225	380.366306505806	533.340937686685	658.222786945300	266.930687977845	493.255185470442	460.219512942719	196.929814495089	456.851873001923	628.479030259331	148.704770494156	514.881989844372	516.055066082527	143.891693538810	537.271008064288	694.574256336211	39.163225254687	549.906782473019	509.684215203830	39.072522424799	303.175684982373	583.894982254623	34.856459153134	222.923618214033	668.770911599696	93.645781338403	251.778282554808	796.262823597154	38.938196331584	220.955208004203	739.643468464186	1069.311182917994	5.302545511363	877.315077326632	846.449220754810	6.076513500698	599.741563450256	1084.028190765117	588.695328977459	609.787496949374	823.813000992218	601.903316053350	
110	32.325428571429	492.811526593683	994.141327447751	315.856327891494	721.581486366604	1412.675718356918	145.195683018084	798.482438601104	1338.725039828392	317.603735142153	704.341152304256	1420.676739967289	481.758708205163	697.379910175218	1478.479528311772	300.719108277268	710.561213795478	934.904375525093	455.475324784517	724.606408164098	943.696594270852	181.384332840692	797.099049623656	767.375773384733	435.723555309368	756.188099318790	649.093563123384	514.852259003548	849.960359246666	608.316835791890	440.960844882019	870.447941494228	498.919929475384	471.712317418222	776.580106540439	737.046480554410	225.488307345136	700.588326105072	611.487305510086	168.495171875776	783.419174651242	541.406527883512	244.129636876774	785.376386645092	466.411534518891	255.393672962120	741.378896781358	393.935983037755	246.942624768788	635.936141007833	296.379736376639	191.018934279786	656.511899965902	180.062822968047	265.584920385258	797.689803060744	421.249884052823	481.393206916572	675.044040459951	377.333123245879	536.280904683473	673.493676338347	263.841491163195	496.549196361197	480.125738560204	182.504784095047	460.694028904298	650.413776368411	145.649043204626	518.787220913490	538.997810888744	134.088699106315	541.492071967921	722.722947943129	41.293947788451	554.456989819017	503.963679812803	39.150351843762	303.045402049976	578.219754394695	34.850495076052	222.842903373006	663.131435451306	93.597354888381	251.741646763869	790.598783219231	38.835145036490	220.910918321962	745.011621667335	1069.821587610124	6.663392680627	890.761964807960	851.931469231626	10.212990470106	586.698789104750	1087.453236510002	586.942272360401	587.272545301728	827.078116739095	600.946952996375	
